<?xml version="1.0" encoding="UTF-8"?>
<svg id="_レイヤー_2" data-name="レイヤー 2" xmlns="http://www.w3.org/2000/svg" viewBox="0 0 624.27 44.24">
  <defs>
    <style>
      .cls-1 {
        fill: #000;
        stroke-width: 0px;
      }
    </style>
  </defs>
  <g id="_デザイン" data-name="デザイン">
    <g>
      <g>
        <path class="cls-1" d="M39.61,44v.18q-.12.06-.18.06h-3.97c-.06,0-.18-.06-.18-.18l-5.54-12.4H5.96L.48,44.06c-.12.18-.18.18-.3.18-.18-.06-.18-.18-.18-.24C21.85-5,18.18,3.31,19.56.12c.12-.06.12-.12.3-.12.06,0,.06.06.18.12l19.56,43.88ZM6.14,31.36h23.48L17.88,5.12,6.14,31.36Z"/>
        <path class="cls-1" d="M82.11,44q0,.06-.06.18c0,.06-.12.06-.12.06h-3.97c-.06,0-.18-.06-.18-.18l-6.86-19.26c-.54.18-1.02.24-1.57.42h-.18c-.24,0-.3.06-.48.06s-.36,0-.6.06h-.06c-.3,0-.66.06-1.02.06h-12.34v18.78q-.12.06-.18.06h-3.97s-.06,0-.06-.06c-.12,0-.12-.12-.12-.12V.06c.12,0,.12-.06.18-.06h16.01c8.67.12,15.59,5.78,15.59,12.7,0,4.51-2.89,8.43-7.34,10.71l7.34,20.59ZM77.06,19.02c.6-1.33.66-2.53.72-3.01v-6.56c0-.12,0-.3-.06-.42-.18-3.67-3.31-6.92-7.46-8.13-1.69-.48-3.19-.54-3.73-.54h-11.86v24.68h12.22c1.5-.06,2.95-.36,4.15-.84.18-.06.48-.12.66-.18.06-.12.18-.12.24-.18.12-.06.3-.12.48-.24.12-.06.18-.06.18-.12.3-.06.48-.24.66-.3q.12-.06.18-.18c.24-.12.42-.18.6-.36,1.32-.96,2.35-2.17,3.01-3.61ZM66.04.12v.12-.12ZM66.04.24v.06-.06Z"/>
        <path class="cls-1" d="M97.17.12v44.06q-.12.06-.18.06h-3.97s-.06,0-.06-.06c-.12,0-.12-.12-.12-.12V.12s0-.06.12-.06c0-.06.06-.06.06-.06h3.97q.06,0,.18.06v.06Z"/>
      </g>
      <g>
        <path class="cls-1" d="M162.78,31.54c0,6.14-5.42,11.26-12.76,12.46h-.18c-.24,0-.3.06-.48.06s-.36.12-.6.12h-.06c-.3,0-.66.06-1.02.06h-16.49s-.06,0-.06-.06h-.12V.12s0-.06.12-.06c0-.06.06-.06.06-.06h11.86c6.56,0,11.98,4.27,11.98,9.57,0,4.39-3.79,8.13-8.85,9.21h1.02c8.67.18,15.59,5.84,15.59,12.76ZM135.33.36v18.42h7.64c4.21,0,7.58-2.71,7.58-6.08v-6.32c0-2.65-2.17-4.88-5.06-5.72-.84-.24-1.69-.3-2.11-.3h-8.07ZM158.45,34.67v-6.32c0-.12,0-.3-.06-.54-.18-3.67-3.31-6.92-7.46-8.13-1.69-.42-3.19-.48-3.73-.48h-11.86v24.68h12.22c4.7-.24,8.67-2.65,10.17-5.96.66-1.45.66-2.71.72-3.07v-.18Z"/>
        <path class="cls-1" d="M208.3,44v.18q-.12.06-.18.06h-3.97c-.06,0-.18-.06-.18-.18l-5.54-12.4h-23.78l-5.48,12.4c-.12.18-.18.18-.3.18-.18-.06-.18-.18-.18-.24C190.54-5,186.87,3.31,188.25.12c.12-.06.12-.12.3-.12.06,0,.06.06.18.12l19.56,43.88ZM174.83,31.36h23.48l-11.74-26.25-11.74,26.25Z"/>
        <path class="cls-1" d="M242.73,43.88c.18,0,.3.06.3.18s-.12.18-.3.18h-23.54s-.06,0-.06-.06c-.12,0-.12-.12-.12-.12V.12s0-.06.12-.06c0-.06.06-.06.06-.06h3.97q.06,0,.18.06v43.82h19.38Z"/>
        <path class="cls-1" d="M277.47,43.88c.18,0,.3.06.3.18s-.12.18-.3.18h-23.54s-.06,0-.06-.06c-.12,0-.12-.12-.12-.12V.12s0-.06.12-.06c0-.06.06-.06.06-.06h3.97q.06,0,.18.06v43.82h19.38Z"/>
        <path class="cls-1" d="M312.2,43.88c.18,0,.3.06.3.18s-.12.18-.3.18h-23.54s-.06,0-.06-.06c-.12,0-.12-.12-.12-.12V.12s0-.06.12-.06c0-.06.06-.06.06-.06h23.54c.18,0,.3.06.3.12,0,.18-.12.24-.3.24h-19.38v21.61h11.56c.12,0,.18.06.18.12,0,.12-.06.18-.18.18h-11.56v21.61h19.38Z"/>
        <path class="cls-1" d="M350.85,0c.12,0,.24.06.24.12,0,.18-.12.24-.24.24h-11.56v43.82q-.06.06-.18.06h-3.91s-.12,0-.12-.06c-.12,0-.12-.12-.12-.12V.36h-11.56c-.06,0-.18-.06-.18-.24,0-.06.12-.12.18-.12h27.45Z"/>
      </g>
      <g>
        <path class="cls-1" d="M403.87,32.93v.42c-.12,3.67-1.81,6.08-3.85,7.83-2.05,1.69-5.18,3.07-9.93,3.07h-.18c-6.92,0-10.47-2.77-12.22-5.6-1.75-2.77-1.69-5.54-1.69-5.54,0-.96.96-1.75,2.17-1.75s2.17.78,2.17,1.75-.96,1.75-2.17,1.75c-.66,0-1.2-.24-1.62-.6,0,.12,0,.36.12.48.18,1.08.66,2.41,1.5,3.79,1.69,2.71,5,5.36,11.74,5.36.12,0,.84,0,2.17-.18.48-.06,1.14-.12,1.81-.3,4.15-1.08,6.14-4.03,6.14-7.46,0-4.27-3.31-9.39-10.17-12.1-.36-.06-13-3.13-13.84-12.28v-.78c0-4.39,2.35-6.92,5-8.55C383.04.96,385.87,0,389.84,0h.06c6.98,0,10.47,2.77,12.22,5.54,1.75,2.83,1.75,5.6,1.75,5.6v.06c0,.9-.96,1.69-2.17,1.69-1.26,0-2.17-.78-2.17-1.75s.9-1.75,2.17-1.75c.66,0,1.2.24,1.56.54,0-.18,0-.3-.06-.48-.18-1.02-.6-2.35-1.45-3.73-1.69-2.71-5.06-5.36-11.86-5.36h-.18c-.24,0-.9,0-1.87.18-.48.06-.96.06-1.5.18-4.33,1.08-6.5,4.09-6.5,7.52,0,4.39,3.37,9.45,10.17,12.16.42.18,12.88,3.07,13.85,11.74v.78Z"/>
        <path class="cls-1" d="M446.37,34.67s0,2.35-1.5,4.76c-1.5,2.41-4.51,4.82-10.41,4.82-1.81,0-3.31-.24-4.7-.6l-.12-.06h-.06c-8.67-2.41-14.99-11.14-14.99-21.49s6.38-19.08,15.05-21.43h.12C431.14.24,432.65,0,434.45,0c5.9,0,8.91,2.41,10.41,4.82,1.5,2.41,1.5,4.76,1.5,4.76,0,.12-.06.18-.18.18-.18,0-.3-.06-.3-.18,0,0,.06-.54-.18-1.44-.18-.84-.48-1.99-1.2-3.19-1.44-2.29-4.33-4.58-10.05-4.58-1.69,0-3.31.24-4.63.6-.06,0-.18.06-.24.06-5.96,1.93-8.79,6.92-9.99,9.81-.18.42-.36.9-.48,1.2-.06.72-.18,1.5-.18,2.23v15.65c0,.78.12,1.5.18,2.29.12.3.3.72.48,1.2.48,1.2,1.26,2.77,2.47,4.27,2.29,3.13,6.08,6.2,12.4,6.2,5.72,0,8.61-2.29,10.05-4.63,1.38-2.23,1.38-4.58,1.38-4.58,0-.12.12-.24.3-.24.12,0,.18.12.18.24Z"/>
        <path class="cls-1" d="M488.87.12v43.94s0,.12-.06.12c0,.06-.12.06-.12.06h-3.97q-.06,0-.18-.06v-21.91h-23.12v21.91q-.12.06-.18.06h-3.97s-.06,0-.06-.06c-.12,0-.12-.12-.12-.12V.12s0-.06.12-.06c0-.06.06-.06.06-.06h3.97q.06,0,.18.06v21.91h23.12V.06q.12-.06.18-.06h3.97s.12,0,.12.06c.06,0,.06.06.06.06Z"/>
        <path class="cls-1" d="M539.2,22.09v1.45c0,.24,0,.48-.12.66v.42c0,.18-.06.42-.06.66v.36c-.12.24-.12.48-.12.6-.06.18-.06.3-.06.48-.12.18-.12.36-.18.6v.36c-.12.3-.24.66-.3.96,0,.06-.12.24-.12.36-.06.18-.06.42-.18.54-.06.18-.06.3-.18.48,0,.12-.12.3-.12.42-.06.24-.18.36-.18.54-.06.12-.18.3-.18.36-.06.24-.18.36-.18.54-.06.12-.18.24-.18.36-.12.18-.18.36-.3.54,0,.06-.06.12-.06.24-.42.66-.78,1.32-1.26,1.99v.12c-.06.18-.24.42-.42.66v.06c-.24.24-.42.36-.48.6l-.12.06c-3.55,4.7-8.91,7.71-14.93,7.71s-11.5-3.01-15.05-7.77c-.18-.24-.36-.42-.6-.66v-.06c-.18-.18-.24-.42-.42-.6v-.12c-.48-.66-.84-1.32-1.26-2.11,0-.06-.06-.06-.06-.12-.12-.24-.18-.36-.3-.54,0-.12-.12-.24-.12-.36-.06-.18-.18-.3-.24-.54,0-.12-.12-.24-.12-.36-.06-.18-.18-.3-.18-.54-.06-.12-.06-.3-.18-.42-.12-.18-.12-.3-.18-.48,0-.12-.12-.36-.12-.54-.06-.12-.06-.3-.18-.36-.06-.36-.06-.66-.18-.96-.12-.06-.12-.24-.12-.36-.06-.24-.06-.42-.06-.6-.12-.18-.12-.3-.12-.48-.06-.12-.06-.36-.06-.6,0-.06-.12-.24-.12-.36,0-.24,0-.48-.06-.6v-.48c0-.18,0-.42-.12-.66v-2.83c.12-.24.12-.48.12-.72v-.36c.06-.24.06-.42.06-.66,0-.18.12-.24.12-.36,0-.24,0-.48.06-.6,0-.18,0-.3.12-.48,0-.24,0-.36.06-.6,0-.12,0-.24.12-.36.12-.3.12-.6.18-.9.12-.18.12-.3.18-.48,0-.12.12-.36.12-.48.06-.18.06-.3.18-.48.12-.12.12-.3.18-.42,0-.24.12-.42.18-.54,0-.18.12-.3.12-.36.06-.24.18-.42.24-.54,0-.18.12-.24.12-.36.12-.18.18-.42.3-.54.06-.06.06-.18.06-.24.6-.96,1.14-1.87,1.69-2.77,0,0,.12,0,.12-.06C507.48,3.31,513.14,0,519.46,0s11.38,3.01,14.93,7.65c.18.24.36.48.6.72v.06c.66.9,1.2,1.81,1.69,2.77,0,.06.06.18.06.24.12.12.18.36.3.54,0,.12.12.18.18.36,0,.12.12.3.18.54,0,.06.12.18.18.36,0,.12.12.3.18.54,0,.12.12.3.12.42.12.18.12.3.18.48.12.12.12.36.18.48,0,.18.12.3.12.42.06.3.18.66.3.96v.36c.06.24.06.36.18.6,0,.18,0,.3.06.48,0,.12,0,.36.12.6v.36c0,.24.06.42.06.66v.36c.12.24.12.48.12.78v1.32ZM534.87,14.39v-.12c0-6.2-4.63-11.56-10.9-13.3-1.5-.36-3.01-.6-4.51-.6-1.62,0-3.13.24-4.63.6-6.26,1.75-10.9,7.1-10.9,13.3v15.65c0,6.26,4.63,11.56,10.83,13.36h.06c1.5.42,3.01.6,4.63.6,1.5,0,3.01-.18,4.51-.6h.06c6.2-1.81,10.83-7.1,10.83-13.36v-15.53Z"/>
        <path class="cls-1" d="M589.53,22.09v1.45c0,.24,0,.48-.12.66v.42c0,.18-.06.42-.06.66v.36c-.12.24-.12.48-.12.6-.06.18-.06.3-.06.48-.12.18-.12.36-.18.6v.36c-.12.3-.24.66-.3.96,0,.06-.12.24-.12.36-.06.18-.06.42-.18.54-.06.18-.06.3-.18.48,0,.12-.12.3-.12.42-.06.24-.18.36-.18.54-.06.12-.18.3-.18.36-.06.24-.18.36-.18.54-.06.12-.18.24-.18.36-.12.18-.18.36-.3.54,0,.06-.06.12-.06.24-.42.66-.78,1.32-1.26,1.99v.12c-.06.18-.24.42-.42.66v.06c-.24.24-.42.36-.48.6l-.12.06c-3.55,4.7-8.91,7.71-14.93,7.71s-11.5-3.01-15.05-7.77c-.18-.24-.36-.42-.6-.66v-.06c-.18-.18-.24-.42-.42-.6v-.12c-.48-.66-.84-1.32-1.26-2.11,0-.06-.06-.06-.06-.12-.12-.24-.18-.36-.3-.54,0-.12-.12-.24-.12-.36-.06-.18-.18-.3-.24-.54,0-.12-.12-.24-.12-.36-.06-.18-.18-.3-.18-.54-.06-.12-.06-.3-.18-.42-.12-.18-.12-.3-.18-.48,0-.12-.12-.36-.12-.54-.06-.12-.06-.3-.18-.36-.06-.36-.06-.66-.18-.96-.12-.06-.12-.24-.12-.36-.06-.24-.06-.42-.06-.6-.12-.18-.12-.3-.12-.48-.06-.12-.06-.36-.06-.6,0-.06-.12-.24-.12-.36,0-.24,0-.48-.06-.6v-.48c0-.18,0-.42-.12-.66v-2.83c.12-.24.12-.48.12-.72v-.36c.06-.24.06-.42.06-.66,0-.18.12-.24.12-.36,0-.24,0-.48.06-.6,0-.18,0-.3.12-.48,0-.24,0-.36.06-.6,0-.12,0-.24.12-.36.12-.3.12-.6.18-.9.12-.18.12-.3.18-.48,0-.12.12-.36.12-.48.06-.18.06-.3.18-.48.12-.12.12-.3.18-.42,0-.24.12-.42.18-.54,0-.18.12-.3.12-.36.06-.24.18-.42.24-.54,0-.18.12-.24.12-.36.12-.18.18-.42.3-.54.06-.06.06-.18.06-.24.6-.96,1.14-1.87,1.69-2.77,0,0,.12,0,.12-.06C557.81,3.31,563.47,0,569.79,0s11.38,3.01,14.93,7.65c.18.24.36.48.6.72v.06c.66.9,1.2,1.81,1.69,2.77,0,.06.06.18.06.24.12.12.18.36.3.54,0,.12.12.18.18.36,0,.12.12.3.18.54,0,.06.12.18.18.36,0,.12.12.3.18.54,0,.12.12.3.12.42.12.18.12.3.18.48.12.12.12.36.18.48,0,.18.12.3.12.42.06.3.18.66.3.96v.36c.06.24.06.36.18.6,0,.18,0,.3.06.48,0,.12,0,.36.12.6v.36c0,.24.06.42.06.66v.36c.12.24.12.48.12.78v1.32ZM585.2,14.39v-.12c0-6.2-4.63-11.56-10.9-13.3-1.5-.36-3.01-.6-4.51-.6-1.62,0-3.13.24-4.63.6-6.26,1.75-10.9,7.1-10.9,13.3v15.65c0,6.26,4.63,11.56,10.83,13.36h.06c1.5.42,3.01.6,4.63.6,1.5,0,3.01-.18,4.51-.6h.06c6.2-1.81,10.83-7.1,10.83-13.36v-15.53Z"/>
        <path class="cls-1" d="M623.97,43.88c.18,0,.3.06.3.18s-.12.18-.3.18h-23.54s-.06,0-.06-.06c-.12,0-.12-.12-.12-.12V.12s0-.06.12-.06c0-.06.06-.06.06-.06h3.97q.06,0,.18.06v43.82h19.38Z"/>
      </g>
    </g>
  </g>
</svg>
